<?xml version="1.0" encoding="UTF-8"?>
<svg version="1.1" xmlns="http://www.w3.org/2000/svg" width="91" height="66">
<path d="M0 0 C3.90851199 1.58431453 6.52367356 4.26635095 9.421875 7.2265625 C9.92672424 7.73424164 10.43157349 8.24192078 10.95172119 8.76498413 C12.55592096 10.38033842 14.15300856 12.00252209 15.75 13.625 C16.83938107 14.72441698 17.9292199 15.82338059 19.01953125 16.921875 C21.68501885 19.6093602 24.34415143 22.30299021 27 25 C30.90851199 23.41568547 33.52367356 20.73364905 36.421875 17.7734375 C36.92672424 17.26575836 37.43157349 16.75807922 37.95172119 16.23501587 C39.55592096 14.61966158 41.15300856 12.99747791 42.75 11.375 C43.83938107 10.27558302 44.9292199 9.17661941 46.01953125 8.078125 C48.68501885 5.3906398 51.34415143 2.69700979 54 0 C54.99 0.33 55.98 0.66 57 1 C58.00614929 3.4985199 58.00614929 3.4985199 58.90112305 6.86499023 C59.41131233 8.74715492 59.41131233 8.74715492 59.93180847 10.66734314 C60.29212241 12.0476703 60.65208403 13.42808947 61.01171875 14.80859375 C61.3875375 16.21512652 61.7644078 17.62137872 62.14228821 19.02735901 C63.13514881 22.73410304 64.11221947 26.44484285 65.08654785 30.15649414 C65.8852474 33.18808054 66.69525006 36.21659023 67.50586224 39.24500942 C68.47010002 42.84848781 69.42905442 46.45336356 70.38671875 50.05859375 C70.57041204 50.74933928 70.75410534 51.4400848 70.9433651 52.15176201 C71.46078079 54.10229248 71.97402372 56.05392844 72.48706055 58.00561523 C72.78001511 59.11734604 73.07296967 60.22907684 73.37480164 61.37449646 C74 64 74 64 74 66 C68.4100502 65.4714252 63.60775362 64.30980903 58.34765625 62.328125 C34.11718905 53.89694575 16.77828141 55.39815559 -7.26628113 64.06777954 C-10.7589552 65.32668043 -13.23571084 66 -17 66 C-16.26736573 59.20715275 -14.44114786 52.75423388 -12.65625 46.171875 C-12.32709595 44.94591614 -11.99794189 43.71995728 -11.65881348 42.45684814 C-10.96469996 39.87434602 -10.26912358 37.29229852 -9.57080078 34.7109375 C-8.67627295 31.40427897 -7.78610204 28.09646862 -6.89759064 24.78818893 C-6.04766533 21.62405259 -5.19578675 18.46044333 -4.34375 15.296875 C-4.02394165 14.1093866 -3.7041333 12.92189819 -3.37463379 11.69842529 C-3.07762573 10.60008362 -2.78061768 9.50174194 -2.47460938 8.37011719 C-2.2133728 7.40305847 -1.95213623 6.43599976 -1.6829834 5.43963623 C-1.17130205 3.61189582 -0.60020437 1.8006131 0 0 Z " fill="#7A21A6" transform="translate(17,0)"/>
<path d="M0 0 C0.99 0.33 1.98 0.66 3 1 C4.00614929 3.4985199 4.00614929 3.4985199 4.90112305 6.86499023 C5.24124924 8.11976669 5.58137543 9.37454315 5.93180847 10.66734314 C6.29212241 12.0476703 6.65208403 13.42808947 7.01171875 14.80859375 C7.3875375 16.21512652 7.7644078 17.62137872 8.14228821 19.02735901 C9.13514881 22.73410304 10.11221947 26.44484285 11.08654785 30.15649414 C11.8852474 33.18808054 12.69525006 36.21659023 13.50586224 39.24500942 C14.47010002 42.84848781 15.42905442 46.45336356 16.38671875 50.05859375 C16.57041204 50.74933928 16.75410534 51.4400848 16.9433651 52.15176201 C17.46078079 54.10229248 17.97402372 56.05392844 18.48706055 58.00561523 C18.78001511 59.11734604 19.07296967 60.22907684 19.37480164 61.37449646 C20 64 20 64 20 66 C14.84151773 65.90788425 12.01970779 65.42472487 8.17773438 61.89428711 C7.48510498 61.26086395 6.79247559 60.6274408 6.07885742 59.974823 C2.89067619 56.94619124 -0.24735448 53.876291 -3.34375 50.75390625 C-3.99831177 50.09792953 -4.65287354 49.44195282 -5.32727051 48.76609802 C-7.38723823 46.70059855 -9.44367366 44.63162405 -11.5 42.5625 C-12.9086205 41.14885566 -14.31747267 39.73544214 -15.7265625 38.32226562 C-19.15372133 34.88416851 -22.57772019 31.44295344 -26 28 C-24.39626852 23.99482604 -21.57886014 21.3228902 -18.5546875 18.359375 C-17.75987473 17.56880707 -17.75987473 17.56880707 -16.94900513 16.76226807 C-15.26232175 15.08674325 -13.56880436 13.41832278 -11.875 11.75 C-10.72740612 10.61244149 -9.58026539 9.47442564 -8.43359375 8.3359375 C-5.62761863 5.55196535 -2.81549536 2.7743424 0 0 Z " fill="#FA6148" transform="translate(71,0)"/>
<path d="M0 0 C3.04581486 1.36113013 5.13839026 2.89330096 7.48339844 5.25634766 C8.14378113 5.91688141 8.80416382 6.57741516 9.48455811 7.25796509 C10.18574768 7.96947723 10.88693726 8.68098938 11.609375 9.4140625 C12.33618469 10.14370209 13.06299438 10.87334167 13.81182861 11.62509155 C16.12929198 13.9537388 18.4396995 16.28924826 20.75 18.625 C22.32115444 20.20618653 23.89276371 21.78692125 25.46484375 23.3671875 C29.31518653 27.2395669 33.15976117 31.11760171 37 35 C35 36 35 36 32.20727539 35.14453125 C31.01610107 34.70496094 29.82492676 34.26539063 28.59765625 33.8125 C5.37153655 25.82434798 -11.10684917 27.70201684 -34 36 C-32.65427113 33.00056095 -31.16462899 30.91923821 -28.83544922 28.60839844 C-27.87467972 27.64785553 -27.87467972 27.64785553 -26.89450073 26.66790771 C-26.20486237 25.98859192 -25.515224 25.30927612 -24.8046875 24.609375 C-24.09724396 23.90476135 -23.38980042 23.20014771 -22.66091919 22.47418213 C-20.40360138 20.2280461 -18.13942367 17.98896991 -15.875 15.75 C-14.34199047 14.22702283 -12.80943285 12.70359061 -11.27734375 11.1796875 C-7.52345427 7.44783185 -3.76391086 3.72174649 0 0 Z " fill="#460F81" transform="translate(44,28)"/>
<path d="M0 0 C0.33 0.66 0.66 1.32 1 2 C0.53207031 2.99 0.06414062 3.98 -0.41796875 5 C-2.52070699 9.62961855 -2.40599833 13.98848944 -2.3125 19 C-2.31572266 19.86367188 -2.31894531 20.72734375 -2.32226562 21.6171875 C-2.2768109 27.05522549 -1.5729051 30.49483214 0 36 C-5.28 35.67 -10.56 35.34 -16 35 C-16.33 35.66 -16.66 36.32 -17 37 C-19.97 34.03 -22.94 31.06 -26 28 C-23.99693319 23.99386638 -21.69139834 21.43317117 -18.5546875 18.359375 C-17.75987473 17.56880707 -17.75987473 17.56880707 -16.94900513 16.76226807 C-15.26232175 15.08674325 -13.56880436 13.41832278 -11.875 11.75 C-10.72740612 10.61244149 -9.58026539 9.47442564 -8.43359375 8.3359375 C-5.62761863 5.55196535 -2.81549536 2.7743424 0 0 Z " fill="#FCF801" transform="translate(71,0)"/>
<path d="M0 0 C0.66 0 1.32 0 2 0 C5.94771612 9.62255804 8.30610841 20.05940258 4.875 30.25 C4.29055534 31.51946817 3.66168108 32.7690235 3 34 C2.58621094 34.81082031 2.17242187 35.62164062 1.74609375 36.45703125 C-1.52555562 42.4030534 -5.34675479 47.15477466 -11 51 C-11.66 51 -12.32 51 -13 51 C-12.32412366 45.32378428 -11.03489692 39.96306406 -9.53125 34.453125 C-9.29088013 33.56010681 -9.05051025 32.66708862 -8.80285645 31.74700928 C-8.03907899 28.91361929 -7.2695155 26.0818363 -6.5 23.25 C-5.98271539 21.33212764 -5.46578472 19.41415979 -4.94921875 17.49609375 C-3.0510166 10.46448873 -3.0510166 10.46448873 -2.10742188 6.99316406 C-1.91724487 6.29257874 -1.72706787 5.59199341 -1.53112793 4.87017822 C-1.06622378 3.23318349 -0.53813452 1.61440356 0 0 Z " fill="#4B1087" transform="translate(17,0)"/>
<path d="M0 0 C2 1 2 1 2.74076843 2.92233276 C2.97028702 3.76377838 3.1998056 4.605224 3.4362793 5.47216797 C3.8312989 6.8990242 3.8312989 6.8990242 4.23429871 8.35470581 C4.65005913 9.90775925 4.65005913 9.90775925 5.07421875 11.4921875 C5.36230911 12.54906769 5.65039948 13.60594788 5.94721985 14.69485474 C6.55546468 16.93497822 7.15961044 19.17621805 7.76000977 21.41845703 C8.68257398 24.85664185 9.62257569 28.28971872 10.56445312 31.72265625 C11.15210116 33.89554708 11.73872402 36.06871547 12.32421875 38.2421875 C12.60746506 39.273508 12.89071136 40.30482849 13.18254089 41.36740112 C13.43643082 42.32494293 13.69032074 43.28248474 13.9519043 44.26904297 C14.1790361 45.11207977 14.40616791 45.95511658 14.6401825 46.82369995 C15 49 15 49 14 52 C6.28525894 45.55072042 -3.1110677 37.60091383 -4.21972656 26.87402344 C-4.34187753 24.32938274 -4.37123153 21.79748334 -4.375 19.25 C-4.39949219 18.3940625 -4.42398438 17.538125 -4.44921875 16.65625 C-4.47820243 10.27984139 -3.0030791 5.60461334 0 0 Z " fill="#E91B49" transform="translate(72,0)"/>
<path d="M0 0 C5.99500997 4.96194855 11.46427037 10.3476624 16.9375 15.875 C17.81212891 16.75414063 18.68675781 17.63328125 19.58789062 18.5390625 C21.72757048 20.6904346 23.86486597 22.84411792 26 25 C24.04513155 29.02570368 22.63413234 31.22378714 18.5 33.1875 C13.68889567 34.3043635 8.91700964 34.52489271 4 34 C3.01 33.34 2.02 32.68 1 32 C1.33 31.13375 1.66 30.2675 2 29.375 C4.7490141 19.60512256 3.23186129 9.4262621 0 0 Z " fill="#F889FD" transform="translate(19,1)"/>
<path d="M0 0 C1.22911972 3.72460521 0.92813735 7.113367 0.75 11 C0.57887654 21.42839021 3.72350114 28.80590449 10.6875 36.5 C11.83798828 37.66015625 11.83798828 37.66015625 13.01171875 38.84375 C14.88334789 40.87349319 16.08992066 42.4028145 17 45 C16.67 45.99 16.34 46.98 16 48 C8.34005402 41.59652738 0.95781163 34.84144596 -2 25 C-2.28566048 21.66283092 -2.2791084 18.34746646 -2.25 15 C-2.25773437 14.11054688 -2.26546875 13.22109375 -2.2734375 12.3046875 C-2.25991284 7.77392591 -2.15636738 4.10736644 0 0 Z " fill="#7D0A09" transform="translate(70,4)"/>
<path d="M0 0 C0.66 0 1.32 0 2 0 C2.54107052 10.09998313 -1.07641768 17.86002163 -7 26 C-9.48059243 28.59145689 -12.02945886 30.97949679 -15 33 C-15.66 33 -16.32 33 -17 33 C-16.67 30.69 -16.34 28.38 -16 26 C-15.21625 25.7525 -14.4325 25.505 -13.625 25.25 C-10.52546395 23.77403045 -10.38564807 23.00680154 -9 20 C-8.19513485 18.80731203 -7.382309 17.61996594 -6.5625 16.4375 C-3.88461869 12.25084191 -2.7155683 8.03033809 -1.578125 3.22265625 C-1 1 -1 1 0 0 Z " fill="#250445" transform="translate(21,18)"/>
<path d="M0 0 C4.00517396 1.60373148 6.6771098 4.42113986 9.640625 7.4453125 C10.16767029 7.97518768 10.69471558 8.50506287 11.23773193 9.05099487 C12.91325675 10.73767825 14.58167722 12.43119564 16.25 14.125 C17.38755851 15.27259388 18.52557436 16.41973461 19.6640625 17.56640625 C22.44803465 20.37238137 25.2256576 23.18450464 28 26 C27.01 26 26.02 26 25 26 C24.566875 25.484375 24.13375 24.96875 23.6875 24.4375 C22.03621844 22.70742131 22.03621844 22.70742131 19.375 23.0625 C16.47602042 23.86777211 14.13326003 24.83767366 11.4375 26.125 C8.45555335 27.52530603 7.29279244 28.02390142 3.9375 27.75 C3.298125 27.5025 2.65875 27.255 2 27 C2 26.34 2 25.68 2 25 C3.48113281 24.58427734 3.48113281 24.58427734 4.9921875 24.16015625 C6.28648797 23.79437568 7.58075719 23.42848451 8.875 23.0625 C9.52597656 22.88009766 10.17695312 22.69769531 10.84765625 22.50976562 C14.50796485 21.48107307 14.50796485 21.48107307 18 20 C16.50067938 18.64508116 15.00049946 17.29111322 13.5 15.9375 C12.59507813 15.11765625 11.69015625 14.2978125 10.7578125 13.453125 C9.04958594 11.93362602 7.31885799 10.43854748 5.5546875 8.984375 C4.47574219 8.09492187 4.47574219 8.09492187 3.375 7.1875 C2.72273438 6.66542969 2.07046875 6.14335938 1.3984375 5.60546875 C0 4 0 4 0 0 Z " fill="#240440" transform="translate(44,28)"/>
<path d="M0 0 C0.66 0.33 1.32 0.66 2 1 C1.47212891 1.64062378 1.47212891 1.64062378 0.93359375 2.29418945 C-0.71415175 4.29767374 -2.35713915 6.30500857 -4 8.3125 C-4.59651367 9.03711426 -5.19302734 9.76172852 -5.80761719 10.50830078 C-9.2088163 14.67361752 -12.30479347 18.87936971 -15.25 23.375 C-17.85088888 27.0818224 -19.54929935 28.6715792 -24 29.6875 C-26.3125 29.94921875 -26.3125 29.94921875 -28 30 C-26.36221955 25.80374091 -23.26676818 23.01323215 -20.1171875 19.921875 C-19.54292023 19.35043762 -18.96865295 18.77900024 -18.37698364 18.19024658 C-16.5476419 16.37207055 -14.71145807 14.56098508 -12.875 12.75 C-11.63105226 11.51608671 -10.3875573 10.28171678 -9.14453125 9.046875 C-6.10157633 6.02593257 -3.05246746 3.01132908 0 0 Z " fill="#1F003E" transform="translate(38,34)"/>
<path d="M0 0 C0.66 0.33 1.32 0.66 2 1 C0.75933437 2.6321378 -0.49291688 4.25547321 -1.75 5.875 C-2.44609375 6.77992187 -3.1421875 7.68484375 -3.859375 8.6171875 C-6 11 -6 11 -7.87695312 11.90429688 C-10.4428754 13.22856771 -12.08443679 14.85844341 -14.109375 16.9140625 C-15.24052734 18.05488281 -15.24052734 18.05488281 -16.39453125 19.21875 C-17.17183594 20.0128125 -17.94914062 20.806875 -18.75 21.625 C-19.54277344 22.42679688 -20.33554687 23.22859375 -21.15234375 24.0546875 C-23.10614493 26.03202846 -25.05512103 28.01388909 -27 30 C-27 27 -27 27 -24.52148438 24.1809082 C-23.38657524 23.0464748 -22.24339159 21.92028209 -21.09375 20.80078125 C-20.49445679 20.20573288 -19.89516357 19.61068451 -19.27770996 18.99760437 C-17.35871908 17.09542948 -15.42956888 15.20393795 -13.5 13.3125 C-12.19853699 12.02608 -10.89774682 10.7389789 -9.59765625 9.45117188 C-6.40619631 6.29281998 -3.20558502 3.14401203 0 0 Z " fill="#300B4E" transform="translate(38,34)"/>
<path d="M0 0 C0.99 0.495 0.99 0.495 2 1 C2.4140625 3.28515625 2.4140625 3.28515625 2.625 6.0625 C2.69976563 6.98160156 2.77453125 7.90070312 2.8515625 8.84765625 C2.92503906 9.91306641 2.92503906 9.91306641 3 11 C2.01 11.33 1.02 11.66 0 12 C0 8.04 0 4.08 0 0 Z " fill="#3D1060" transform="translate(20,7)"/>
<path d="M0 0 C0.66 0.66 1.32 1.32 2 2 C0.56879256 2.55808089 -0.87030355 3.09596462 -2.3125 3.625 C-3.11300781 3.92664062 -3.91351563 4.22828125 -4.73828125 4.5390625 C-5.48464844 4.69117188 -6.23101562 4.84328125 -7 5 C-7.99 4.34 -8.98 3.68 -10 3 C-5.05 1.515 -5.05 1.515 0 0 Z " fill="#2A0452" transform="translate(63,48)"/>
</svg>
